<?xml version="1.0" standalone="no"?>
<!DOCTYPE svg PUBLIC "-//W3C//DTD SVG 1.1//EN" "http://www.w3.org/Graphics/SVG/1.1/DTD/svg11.dtd" >
<svg xmlns="http://www.w3.org/2000/svg">
<metadata>Generated by IcoMoon</metadata>
<defs>
<font id="icomoon" horiz-adv-x="1024">
<font-face units-per-em="1024" ascent="960" descent="-64" />
<missing-glyph horiz-adv-x="1024" />
<glyph unicode="&#x20;" d="" horiz-adv-x="512" />
<glyph unicode="&#xe600;" d="M189.649 150.154c-62.848 0-143.844 20.241-189.649 46.893l25.547 102.291c40.481-23.421 114.044-44.716 168.387-44.716 38.338 0 66.045 14.883 66.045 43.662 0 36.229-22.401 47.914-109.758 82-82.068 32.011-135.339 60.79-135.339 151.328 0 103.38 84.211 159.849 193.935 159.849 61.827 0 126.801-19.22 163.047-39.443l-25.581-101.237c-27.707 13.862-85.248 29.885-128.927 29.885-47.931 0-70.332-14.951-70.332-42.641 0-27.707 35.157-40.515 95.913-62.899 94.841-35.123 148.13-82.017 148.13-165.139 0-105.506-94.841-159.832-201.419-159.832z" horiz-adv-x="3289" />
<glyph unicode="&#xe601;" d="M417.703 676.544h73.512v43.679c0 169.425 110.83 218.444 203.511 218.444 19.203 0 46.876-2.126 58.595-6.395l-14.917-103.346h-12.757c-90.589 0-104.434-46.893-104.434-111.884v-40.498h105.472v-100.165h-105.472v-411.308h-129.999v411.308h-73.512v100.165z" horiz-adv-x="3289" />
<glyph unicode="&#xe602;" d="M1354.329 676.544h0.034l62.882 126.801h66.045v-126.801h138.537v-99.093h-138.537v-264.266c0-29.816 12.791-51.129 40.532-51.129 30.888 0 69.226 11.702 90.555 19.169l14.917-95.913c-27.707-18.097-82.051-35.157-128.927-35.157-90.589 0-146.004 42.641-146.004 152.382v274.914h-0.034v99.093z" horiz-adv-x="3289" />
<glyph unicode="&#xe603;" d="M1693.23 852.347c0 45.822 36.212 82.051 83.088 82.051 47.965 0 86.337-36.229 86.337-82.051 0-44.716-38.372-80.962-86.337-80.962-46.876 0-83.088 36.246-83.088 80.962zM1711.344 664.808l130.033 26.636v-526.372h-130.033v499.737z" horiz-adv-x="3289" />
<glyph unicode="&#xe604;" d="M2082.154 174.647v-245.080h-130.033v740.582l130.033 21.329v-61.81c38.338 42.607 90.555 61.81 142.789 61.81 123.62 0 207.763-98.056 207.763-263.195 0-169.459-91.627-278.146-248.261-278.146-38.389 0.017-75.689 11.719-102.291 24.51zM2082.154 287.62c22.384-14.934 57.541-29.834 96.933-29.834 72.458 0 120.423 53.289 120.423 160.887 0 82.034-26.636 158.777-104.417 158.777-44.784 0-83.122-23.438-112.956-60.739v-229.092z" horiz-adv-x="3289" />
<glyph unicode="&#xe605;" d="M2742.794 106.459c-37.3-101.22-88.429-191.792-209.923-191.792-30.888 0-71.386 5.324-100.165 20.241l21.295 93.77c17.077-7.467 49.036-12.774 66.079-12.774 60.722 0 92.715 64.974 128.961 169.408l-202.473 491.232h138.537l124.675-320.736 109.724 320.736h133.213l-209.923-570.085z" horiz-adv-x="3289" />
<glyph unicode="&#xe606;" d="M3021.059 655.963h-56.452v16.652h132.822v-16.652h-56.469v-149.967h-19.9z" horiz-adv-x="3289" />
<glyph unicode="&#xe607;" d="M3124.762 672.615h23.897l58.919-135.765 59.48 135.765h22.111v-166.619h-19.934v126.087l-55.942-126.087h-12.382l-56.248 127.073v-127.073h-19.9z" horiz-adv-x="3289" />
<glyph unicode="&#xe608;" d="M1007.365 715.341c-155.563 0-281.649-126.087-281.649-281.7 0-155.563 126.087-281.666 281.649-281.666 155.631 0 281.734 126.104 281.734 281.666 0 155.614-126.104 281.7-281.734 281.7zM1163.456 417.006c-74.533-41.093-148.861-82.442-223.309-123.671-5.749-3.181-11.481-6.906-17.706-8.606-10.426-2.874-14.645 0.952-14.679 11.634-0.034 45.771 0 91.542 0 137.278v136.326c0 11.957 4.95 15.852 16.482 12.263 4.711-1.497 9.032-4.354 13.42-6.77 75.247-41.689 150.477-83.462 225.792-125.066 6.889-3.81 11.668-8.3 11.668-16.652-0.051-8.351-4.779-12.893-11.668-16.737z" horiz-adv-x="3289" />
<glyph unicode="&#xe609;" d="M1146.478 810.218c0-47.59-38.937-86.527-86.527-86.527h-973.425c-47.59 0-86.527 38.937-86.527 86.527v41.922c0 47.59 38.937 86.527 86.527 86.527h973.425c47.59 0 86.527-38.937 86.527-86.527v-41.922zM1146.478 405.706c0-47.59-38.937-86.527-86.527-86.527h-973.425c-47.59 0-86.527 38.894-86.527 86.527v41.922c0 47.59 38.937 86.527 86.527 86.527h973.425c47.59 0 86.527-38.937 86.527-86.527v-41.922zM1146.478 1.194c0-47.633-38.937-86.527-86.527-86.527h-973.425c-47.59 0-86.527 38.894-86.527 86.527v41.922c0 47.633 38.937 86.527 86.527 86.527h973.425c47.59 0 86.527-38.894 86.527-86.527v-41.922z" horiz-adv-x="1146" />
<glyph unicode="&#xe60a;" d="M165.559-56.938l146.319 146.358c178.787-115.597 420.609-95.231 577.091 61.289 180.028 179.951 180.028 472.899 0 652.966-179.989 179.989-472.899 179.989-652.966-0.039-156.482-156.482-176.847-398.265-61.251-577.052l-146.319-146.358c-37.937-37.899-37.899-99.266 0-137.126 37.821-37.899 99.266-37.899 137.126-0.039zM359.436 680.204c111.989 111.989 294.151 111.989 406.14 0 111.95-111.95 111.95-294.112 0-406.14-111.989-111.912-294.151-111.912-406.14 0-111.95 112.028-111.95 294.228 0 406.14z" />
<glyph unicode="&#xe60b;" d="M1102.732 564.655h-632.684l138.367 138.781c53.775 53.913 53.637 141.263-0.276 194.969-53.913 53.775-141.263 53.637-194.969-0.276l-372.978-374.081c-53.637-53.775-53.637-140.849 0-194.693l372.978-374.081c26.956-27.025 62.255-40.607 97.622-40.607 35.23 0 70.528 13.444 97.347 40.262 53.913 53.844 54.051 141.125 0.276 194.969l-138.505 138.988h632.821c76.112 0 137.885 61.772 137.885 137.885s-61.703 137.885-137.885 137.885z" horiz-adv-x="1241" />
<glyph unicode="&#xe60c;" d="M676.881 670.27c0-148.156-120.195-268.35-268.444-268.35-148.109 0-268.209 120.195-268.209 268.35 0 148.249 120.101 268.397 268.209 268.397 148.249 0 268.444-120.148 268.444-268.397zM817.061-85.333h-817.061v274.308c0 133.8 109.498 243.392 243.345 243.392h330.371c133.753 0 243.345-109.592 243.345-243.392v-274.308z" horiz-adv-x="817" />
<glyph unicode="&#xe60d;" d="M1197.079-85.333h-1014.132c-100.847 0-182.946 82.099-182.946 182.946v658.107c0 100.782 82.099 182.946 182.946 182.946h1014.132c100.979 0 182.881-82.165 182.881-182.946v-658.107c0.066-100.847-81.902-182.946-182.881-182.946zM182.946 772.298c-9.012 0-16.578-7.565-16.578-16.578v-658.107c0-9.078 7.565-16.578 16.578-16.578h1014.132c9.012 0 16.578 7.499 16.578 16.578v658.107c0 9.012-7.565 16.578-16.578 16.578h-1014.132zM689.947 343.516c-15.065 0-30.327 4.079-43.681 12.433l-606.861 375.695c-39.010 24.143-51.114 75.389-26.972 114.465s75.323 51.18 114.465 26.906l561.075-347.21 507.658 345.368c38.023 25.853 89.598 15.854 115.517-21.972 25.919-38.023 16.183-89.73-22.104-115.583l-552.326-375.826c-14.012-9.473-30.327-14.275-46.773-14.275z" horiz-adv-x="1380" />
<glyph unicode="&#xe60e;" d="M767.657-21.333c0-35.213-28.787-64-64-64h-639.657c-35.213 0-64 28.787-64 64v476.23c0 35.213 28.787 63.914 64 63.914h639.657c35.213 0 64-28.701 64-63.914v-476.23zM463.122 148.777h-158.586c-129.371 0-234.538 105.167-234.538 234.495v320.857c0 129.285 105.167 234.538 234.538 234.538h158.544c129.414 0 234.581-105.253 234.581-234.538v-320.857c0-129.328-105.167-234.495-234.538-234.495zM304.535 832.086c-70.511 0-127.914-57.403-127.914-127.957v-320.857c0-70.511 57.403-127.871 127.914-127.871h158.544c70.554 0 127.871 57.403 127.871 127.871v320.857c0 70.554-57.317 127.957-127.871 127.957h-158.544z" horiz-adv-x="768" />
<glyph unicode="&#xe60f;" d="M766.708 479.736h-201.602v201.639h-106.213v-201.639h-201.527v-106.1h201.527v-201.602h106.213v201.602h201.602zM512-85.333c-282.347 0-512 229.69-512 512 0 282.385 229.653 512 512 512s512.037-229.615 512.037-512c0-282.31-229.69-512-512.037-512zM512 810.733c-211.751 0-383.991-172.277-383.991-384.066s172.24-384.028 383.991-384.028 384.066 172.24 384.066 384.028-172.315 384.066-384.066 384.066z" />
<glyph unicode="&#xe610;" d="M1190.505 597.045c-1.277 188.714-152.949 341.622-341.622 341.622-100.579 0-194.771-58.262-257.236-127.444-62.589 69.181-149.199 127.444-249.778 127.444-188.714 0-347.143-153.073-341.745-341.622 12.65-433.589 564.205-680.483 595.232-682.378 29.708-1.731 597.869 300.665 595.15 682.378z" horiz-adv-x="1191" />
<glyph unicode="&#xe611;" d="M1057.813-85.333h-974.021c-46.255 0-83.792 37.537-83.792 83.75v856.5c0 46.213 37.58 83.75 83.792 83.75h610.413c46.297 0 83.792-37.537 83.792-83.75 0-46.34-37.537-83.835-83.792-83.835h-526.579v-688.747h806.436v136.353c0 46.34 37.495 83.75 83.75 83.75s83.792-37.453 83.792-83.75v-220.187c0.042-46.34-37.495-83.835-83.792-83.835zM1210.882 620.299l-263.226 240.501c-15.658 14.304-28.566 8.675-28.566-12.611v-104.105c-543.126-38.511-576.516-497.167-576.516-497.167s239.485 310.751 576.516 202.836v-109.522c0-21.244 12.907-26.957 28.566-12.611l263.268 240.501c15.743 14.346 15.743 37.791-0.042 52.18z" horiz-adv-x="1223" />
<glyph unicode="&#xe612;" d="M472.816 821.923l-248.591-194.921c-9.737-7.742-18.571-19.236-25.6-32.012h-146.951c-28.497 0-51.675-23.32-51.675-51.817v-232.965c0-28.592 23.178-51.865 51.675-51.865h146.951c7.029-12.824 15.863-24.318 25.6-31.917l248.591-195.063c22.465-17.526 40.799-8.644 40.799 19.853v750.949c0 28.545-18.333 37.331-40.799 19.758z" horiz-adv-x="1150" />
<glyph unicode="&#xe613;" d="M472.816 821.923l-248.591-194.921c-9.737-7.742-18.571-19.236-25.6-32.012h-146.951c-28.497 0-51.675-23.32-51.675-51.817v-232.965c0-28.592 23.178-51.865 51.675-51.865h146.951c7.029-12.824 15.863-24.318 25.6-31.917l248.591-195.063c22.465-17.526 40.799-8.644 40.799 19.853v750.949c0 28.545-18.333 37.331-40.799 19.758zM637.578 106.501c-28.64 0-51.865 23.225-51.865 51.817 0 28.64 23.225 51.77 51.865 51.77 119.403 0 216.531 97.176 216.531 216.579 0 119.451-97.128 216.531-216.531 216.531-28.64 0-51.865 23.225-51.865 51.912 0 28.545 23.225 51.77 51.865 51.77 176.445 0 320.119-143.626 320.119-320.166s-143.673-320.214-320.119-320.214zM637.578-85.333c-28.64 0-51.865 23.13-51.865 51.817 0 28.592 23.225 51.77 51.865 51.77 225.176 0 408.413 183.19 408.413 408.413s-183.237 408.46-408.413 408.46c-28.64 0-51.865 23.178-51.865 51.77 0 28.64 23.225 51.77 51.865 51.77 282.265 0 511.952-229.688 511.952-512s-229.688-512-511.952-512z" horiz-adv-x="1150" />
<glyph unicode="&#xe614;" d="M200.834 852.699v72.547c0 13.905-8.645 17.593-18.983 8.162l-174.052-158.938c-10.398-9.492-10.398-25.029 0-34.46l174.052-158.999c10.398-9.492 18.983-5.743 18.983 8.464v263.224zM1343.388 0.635v-72.426c0-14.026 8.585-17.714 18.862-8.282l174.052 158.938c10.398 9.431 10.398 25.029 0 34.46l-174.052 158.938c-10.338 9.552-18.862 5.804-18.862-8.282v-263.345zM326.582 816.849h-251.133c-32.948 0-59.67-26.661-59.67-59.67 0-32.888 26.721-59.549 59.67-59.549h251.133c149.447 0 224.11-67.65 306.269-184.632l69.887 106.463c-92.256 120.912-191.343 197.388-376.156 197.388zM1426.212 155.825h-254.761c-161.175 0-235.596 112.75-333.595 265.643l-68.436-113.778c95.883-145.457 199.625-271.144 401.97-271.144h254.761c32.948 0 59.791 26.601 59.791 59.609s-26.782 59.67-59.73 59.67zM1343.388 661.719v-72.245c0-14.147 8.585-17.955 18.862-8.464l174.052 158.938c10.398 9.492 10.398 25.029 0 34.52l-174.052 158.938c-10.338 9.431-18.862 5.804-18.862-8.162v-263.527zM200.834 191.554v72.486c0 14.026-8.645 17.834-18.983 8.282l-174.052-158.878c-10.398-9.492-10.398-25.089 0-34.52l174.052-158.938c10.398-9.431 18.983-5.804 18.983 8.282v263.285zM314.491 36.485h-214.013v119.34h214.013c136.932 0 213.53 79.499 293.15 207.726 15.235 24.847 30.107 50.057 45.644 76.9 10.157 16.867 19.769 33.916 29.986 50.722 25.573 42.984 56.828 93.102 94.553 139.471 103.44 127.139 224.654 186.264 381.476 186.264h288.011c32.948 0 59.609-26.661 59.609-59.67 0-32.888-26.661-59.549-59.609-59.549h-288.011c-119.702 0-208.693-43.951-288.918-142.313-32.827-40.505-61.302-86.149-84.759-125.385-9.794-16.444-19.467-33.069-29.019-49.634-15.477-26.359-31.316-53.443-47.579-79.681-85.061-137.235-191.766-264.192-394.534-264.192z" horiz-adv-x="1544" />
<glyph unicode="&#xe615;" d="M1518.205-85.333l-886.803 512.031 886.803 511.969zM886.741-85.333l-886.741 512.031 886.741 511.969z" horiz-adv-x="1518" />
<glyph unicode="&#xe616;" d="M0 938.667l886.803-511.908-886.803-512.092z" horiz-adv-x="887" />
<glyph unicode="&#xe617;" d="M0 938.667l886.864-511.908-886.864-512.092zM631.464 938.667l886.741-511.908-886.741-512.092z" horiz-adv-x="1518" />
</font>
</defs>
</svg>
