<?xml version="1.0" encoding="utf-8"?>
<!-- Generator: Adobe Illustrator 14.0.0, SVG Export Plug-In . SVG Version: 6.00 Build 43363)  -->
<!DOCTYPE svg PUBLIC "-//W3C//DTD SVG 1.1//EN" "http://www.w3.org/Graphics/SVG/1.1/DTD/svg11.dtd">
<svg version="1.1" id="Layer_1" xmlns="http://www.w3.org/2000/svg" xmlns:xlink="http://www.w3.org/1999/xlink" x="0px" y="0px"
	 width="27.343px" height="27.342px" viewBox="0 0 27.343 27.342" enable-background="new 0 0 27.343 27.342" xml:space="preserve">
<g>
	<path fill="#F9F9FA" d="M114.103-236.438c0,0.75-0.9,1.363-2,1.363h-10.535c-1.1,0-2-0.613-2-1.363s0.9-1.363,2-1.363h10.535
		C113.202-237.801,114.103-237.188,114.103-236.438"/>
	<path fill="#F9F9FA" d="M114.103-231.31c0,0.749-0.9,1.362-2,1.362h-10.535c-1.1,0-2-0.613-2-1.362s0.9-1.362,2-1.362h10.535
		C113.202-232.671,114.103-232.059,114.103-231.31"/>
</g>
<g>
	<polygon fill="#F7F8F9" points="20.472,12.254 15.089,12.254 15.089,6.87 12.253,6.87 12.253,12.254 6.872,12.254 6.872,15.087 
		12.253,15.087 12.253,20.47 15.089,20.47 15.089,15.087 20.472,15.087 	"/>
	<path fill="#F7F8F9" d="M13.671,27.342C6.132,27.342,0,21.209,0,13.671C0,6.131,6.132,0,13.671,0s13.672,6.131,13.672,13.671
		C27.343,21.209,21.21,27.342,13.671,27.342 M13.671,3.416c-5.654,0-10.253,4.6-10.253,10.255s4.599,10.254,10.253,10.254
		s10.255-4.599,10.255-10.254S19.325,3.416,13.671,3.416"/>
</g>
</svg>
