<?xml version="1.0" encoding="utf-8"?>
<!-- Generator: Adobe Illustrator 14.0.0, SVG Export Plug-In . SVG Version: 6.00 Build 43363)  -->
<!DOCTYPE svg PUBLIC "-//W3C//DTD SVG 1.1//EN" "http://www.w3.org/Graphics/SVG/1.1/DTD/svg11.dtd">
<svg version="1.1" id="Layer_1" xmlns="http://www.w3.org/2000/svg" xmlns:xlink="http://www.w3.org/1999/xlink" x="0px" y="0px"
	 width="17.995px" height="14.853px" viewBox="0 0 17.995 14.853" enable-background="new 0 0 17.995 14.853" xml:space="preserve">
<path fill="#F9F9FA" d="M15.995,5.425H6.818l2.007-2.013c0.78-0.782,0.778-2.049-0.004-2.828c-0.782-0.78-2.049-0.778-2.828,0.004
	l-5.41,5.426c-0.778,0.78-0.778,2.043,0,2.824l5.41,5.426c0.391,0.392,0.903,0.589,1.416,0.589c0.511,0,1.023-0.195,1.412-0.584
	c0.782-0.781,0.784-2.047,0.004-2.828L6.816,9.425h9.179c1.104,0,2-0.896,2-2C17.995,6.321,17.1,5.425,15.995,5.425"/>
</svg>
