<?xml version="1.0" encoding="utf-8"?>
<!-- Generator: Adobe Illustrator 14.0.0, SVG Export Plug-In . SVG Version: 6.00 Build 43363)  -->
<!DOCTYPE svg PUBLIC "-//W3C//DTD SVG 1.1//EN" "http://www.w3.org/Graphics/SVG/1.1/DTD/svg11.dtd">
<svg version="1.1" id="Layer_1" xmlns="http://www.w3.org/2000/svg" xmlns:xlink="http://www.w3.org/1999/xlink" x="0px" y="0px"
	 width="28.893px" height="24.852px" viewBox="0 0 28.893 24.852" enable-background="new 0 0 28.893 24.852" xml:space="preserve">
<g>
	<path fill="#F9F9FA" d="M163.59-238.438c0,0.75-0.9,1.363-2,1.363h-10.535c-1.1,0-2-0.613-2-1.363s0.9-1.363,2-1.363h10.535
		C162.69-239.801,163.59-239.188,163.59-238.438"/>
	<path fill="#F9F9FA" d="M163.59-233.31c0,0.749-0.9,1.362-2,1.362h-10.535c-1.1,0-2-0.613-2-1.362s0.9-1.362,2-1.362h10.535
		C162.69-234.671,163.59-234.059,163.59-233.31"/>
</g>
<path fill="#F7F8F9" d="M28.893,8.291C28.862,3.711,25.181,0,20.602,0c-2.441,0-4.727,1.414-6.243,3.093
	C12.84,1.414,10.738,0,8.297,0c-4.58,0-8.425,3.715-8.294,8.291C0.31,18.814,13.696,24.806,14.449,24.852
	C15.17,24.894,28.959,17.555,28.893,8.291"/>
</svg>
