<?xml version="1.0" encoding="utf-8"?>
<!-- Generator: Adobe Illustrator 14.0.0, SVG Export Plug-In . SVG Version: 6.00 Build 43363)  -->
<!DOCTYPE svg PUBLIC "-//W3C//DTD SVG 1.1//EN" "http://www.w3.org/Graphics/SVG/1.1/DTD/svg11.dtd">
<svg version="1.1" id="Layer_1" xmlns="http://www.w3.org/2000/svg" xmlns:xlink="http://www.w3.org/1999/xlink" x="0px" y="0px"
	 width="17.92px" height="23.904px" viewBox="0 0 17.92 23.904" enable-background="new 0 0 17.92 23.904" xml:space="preserve">
<g>
	<path fill="#F9F9FA" d="M109.154-239.077c0,0.75-0.9,1.363-2,1.363H96.619c-1.1,0-2-0.613-2-1.363s0.9-1.363,2-1.363h10.535
		C108.254-240.44,109.154-239.827,109.154-239.077"/>
	<path fill="#F9F9FA" d="M109.154-233.949c0,0.749-0.9,1.362-2,1.362H96.619c-1.1,0-2-0.613-2-1.362s0.9-1.362,2-1.362h10.535
		C108.254-235.311,109.154-234.698,109.154-233.949"/>
</g>
<g>
	<path fill="#8C8C8C" d="M17.92,22.41c0,0.822-0.672,1.494-1.494,1.494H1.494C0.672,23.904,0,23.232,0,22.41V11.293
		c0-0.822,0.672-1.492,1.494-1.492h14.932c0.822,0,1.494,0.67,1.494,1.492V22.41z"/>
	<path fill="#8C8C8C" d="M10.811,18.439H7.109c-3.02,0-5.475-2.455-5.475-5.474v-7.49C1.634,2.457,4.089,0,7.109,0h3.701
		c3.021,0,5.476,2.457,5.476,5.475v7.49C16.286,15.984,13.831,18.439,10.811,18.439 M7.109,2.488c-1.646,0-2.986,1.34-2.986,2.987
		v7.49c0,1.646,1.34,2.985,2.986,2.985h3.701c1.647,0,2.985-1.34,2.985-2.985v-7.49c0-1.647-1.338-2.987-2.985-2.987H7.109z"/>
</g>
</svg>
