<?xml version="1.0" encoding="utf-8"?>
<!-- Generator: Adobe Illustrator 14.0.0, SVG Export Plug-In . SVG Version: 6.00 Build 43363)  -->
<!DOCTYPE svg PUBLIC "-//W3C//DTD SVG 1.1//EN" "http://www.w3.org/Graphics/SVG/1.1/DTD/svg11.dtd">
<svg version="1.1" id="Layer_1" xmlns="http://www.w3.org/2000/svg" xmlns:xlink="http://www.w3.org/1999/xlink" x="0px" y="0px"
	 width="20.978px" height="15.566px" viewBox="0 0 20.978 15.566" enable-background="new 0 0 20.978 15.566" xml:space="preserve">
<g>
	<path fill="#F9F9FA" d="M110.684-242.634c0,0.75-0.9,1.363-2,1.363H98.148c-1.1,0-2-0.613-2-1.363s0.9-1.363,2-1.363h10.535
		C109.783-243.997,110.684-243.384,110.684-242.634"/>
	<path fill="#F9F9FA" d="M110.684-237.505c0,0.749-0.9,1.362-2,1.362H98.148c-1.1,0-2-0.613-2-1.362s0.9-1.362,2-1.362h10.535
		C109.783-238.867,110.684-238.254,110.684-237.505"/>
</g>
<g>
	<path fill="#8C8C8C" d="M18.197,15.566H2.781C1.248,15.566,0,14.318,0,12.785V2.781C0,1.249,1.248,0,2.781,0h15.416
		c1.535,0,2.78,1.249,2.78,2.781v10.004C20.978,14.318,19.732,15.566,18.197,15.566 M2.781,2.529c-0.137,0-0.252,0.115-0.252,0.252
		v10.004c0,0.138,0.115,0.252,0.252,0.252h15.416c0.137,0,0.252-0.114,0.252-0.252V2.781c0-0.137-0.115-0.252-0.252-0.252H2.781z"/>
	<path fill="#8C8C8C" d="M10.488,9.047c-0.229,0-0.461-0.062-0.664-0.189L0.599,3.147c-0.593-0.367-0.777-1.146-0.41-1.74
		c0.367-0.594,1.145-0.778,1.74-0.409l8.529,5.278l7.717-5.25c0.578-0.393,1.362-0.241,1.756,0.334
		c0.394,0.578,0.246,1.364-0.336,1.757L11.199,8.83C10.986,8.974,10.738,9.047,10.488,9.047"/>
</g>
</svg>
