<?xml version="1.0" encoding="utf-8"?>
<!-- Generator: Adobe Illustrator 14.0.0, SVG Export Plug-In . SVG Version: 6.00 Build 43363)  -->
<!DOCTYPE svg PUBLIC "-//W3C//DTD SVG 1.1//EN" "http://www.w3.org/Graphics/SVG/1.1/DTD/svg11.dtd">
<svg version="1.1" id="Layer_1" xmlns="http://www.w3.org/2000/svg" xmlns:xlink="http://www.w3.org/1999/xlink" x="0px" y="0px"
	 width="26.5px" height="23.669px" viewBox="0 0 26.5 23.669" enable-background="new 0 0 26.5 23.669" xml:space="preserve">
<g>
	<g>
		<g>
			<defs>
				<rect id="SVGID_1_" y="0" width="26.5" height="4.968"/>
			</defs>
			<clipPath id="SVGID_2_">
				<use xlink:href="#SVGID_1_"  overflow="visible"/>
			</clipPath>
			<path clip-path="url(#SVGID_2_)" fill="#333333" d="M26.5,2.969c0,1.1-0.9,2-2,2H2c-1.1,0-2-0.9-2-2V2c0-1.1,0.9-2,2-2h22.5
				c1.1,0,2,0.9,2,2V2.969z"/>
		</g>
	</g>
	<g>
		<g>
			<defs>
				<rect id="SVGID_3_" y="9.351" width="26.5" height="4.968"/>
			</defs>
			<clipPath id="SVGID_4_">
				<use xlink:href="#SVGID_3_"  overflow="visible"/>
			</clipPath>
			<path clip-path="url(#SVGID_4_)" fill="#333333" d="M26.5,12.319c0,1.1-0.9,2-2,2H2c-1.1,0-2-0.899-2-2V11.35c0-1.1,0.9-2,2-2
				h22.5c1.1,0,2,0.9,2,2V12.319z"/>
		</g>
	</g>
	<g>
		<g>
			<defs>
				<rect id="SVGID_5_" y="18.701" width="26.5" height="4.967"/>
			</defs>
			<clipPath id="SVGID_6_">
				<use xlink:href="#SVGID_5_"  overflow="visible"/>
			</clipPath>
			<path clip-path="url(#SVGID_6_)" fill="#333333" d="M26.5,21.669c0,1.101-0.9,2-2,2H2c-1.1,0-2-0.899-2-2V20.7c0-1.101,0.9-2,2-2
				h22.5c1.1,0,2,0.899,2,2V21.669z"/>
		</g>
	</g>
</g>
</svg>
