<?xml version="1.0" encoding="utf-8"?>
<!-- Generator: Adobe Illustrator 14.0.0, SVG Export Plug-In . SVG Version: 6.00 Build 43363)  -->
<!DOCTYPE svg PUBLIC "-//W3C//DTD SVG 1.1//EN" "http://www.w3.org/Graphics/SVG/1.1/DTD/svg11.dtd">
<svg version="1.1" id="Layer_1" xmlns="http://www.w3.org/2000/svg" xmlns:xlink="http://www.w3.org/1999/xlink" x="0px" y="0px"
	 width="24.203px" height="21.56px" viewBox="0 0 24.203 21.56" enable-background="new 0 0 24.203 21.56" xml:space="preserve">
<g>
	<path fill="#F9F9FA" d="M111.943-239.868c0,0.75-0.9,1.363-2,1.363H99.408c-1.1,0-2-0.613-2-1.363s0.9-1.363,2-1.363h10.535
		C111.043-241.23,111.943-240.618,111.943-239.868"/>
	<path fill="#F9F9FA" d="M111.943-234.739c0,0.749-0.9,1.362-2,1.362H99.408c-1.1,0-2-0.613-2-1.362s0.9-1.362,2-1.362h10.535
		C111.043-236.101,111.943-235.488,111.943-234.739"/>
</g>
<g>
	<path fill="#828282" d="M9.955,2.458L4.721,6.562C4.516,6.725,4.33,6.967,4.182,7.236H1.088C0.488,7.236,0,7.727,0,8.327v4.905
		c0,0.602,0.488,1.092,1.088,1.092h3.094c0.148,0.27,0.334,0.512,0.539,0.672l5.234,4.107c0.473,0.369,0.859,0.182,0.859-0.418
		V2.874C10.814,2.273,10.428,2.088,9.955,2.458"/>
</g>
</svg>
