<?xml version="1.0" encoding="utf-8"?>
<!-- Generator: Adobe Illustrator 14.0.0, SVG Export Plug-In . SVG Version: 6.00 Build 43363)  -->
<!DOCTYPE svg PUBLIC "-//W3C//DTD SVG 1.1//EN" "http://www.w3.org/Graphics/SVG/1.1/DTD/svg11.dtd">
<svg version="1.1" id="Layer_1" xmlns="http://www.w3.org/2000/svg" xmlns:xlink="http://www.w3.org/1999/xlink" x="0px" y="0px"
	 width="26.398px" height="26.398px" viewBox="0 0 26.398 26.398" enable-background="new 0 0 26.398 26.398" xml:space="preserve">
<g>
	<path fill="#F9F9FA" d="M113.499-237.707c0,0.75-0.9,1.363-2,1.363h-10.535c-1.1,0-2-0.613-2-1.363s0.9-1.363,2-1.363h10.535
		C112.598-239.07,113.499-238.457,113.499-237.707"/>
	<path fill="#F9F9FA" d="M113.499-232.579c0,0.749-0.9,1.362-2,1.362h-10.535c-1.1,0-2-0.613-2-1.362s0.9-1.362,2-1.362h10.535
		C112.598-233.94,113.499-233.328,113.499-232.579"/>
</g>
<path fill="#F9F9FA" d="M4.268,25.666l3.772-3.773c4.609,2.98,10.843,2.455,14.877-1.58c4.641-4.639,4.641-12.191,0-16.833
	C18.277-1.16,10.726-1.16,6.084,3.481C2.05,7.515,1.525,13.748,4.505,18.357L0.733,22.13c-0.978,0.977-0.977,2.559,0,3.535
	C1.708,26.642,3.292,26.642,4.268,25.666 M9.266,6.663c2.887-2.887,7.583-2.887,10.47,0c2.886,2.886,2.886,7.582,0,10.47
	c-2.887,2.885-7.583,2.885-10.47,0C6.38,14.245,6.38,9.548,9.266,6.663"/>
</svg>
