<?xml version="1.0" encoding="utf-8"?>
<!-- Generator: Adobe Illustrator 14.0.0, SVG Export Plug-In . SVG Version: 6.00 Build 43363)  -->
<!DOCTYPE svg PUBLIC "-//W3C//DTD SVG 1.1//EN" "http://www.w3.org/Graphics/SVG/1.1/DTD/svg11.dtd">
<svg version="1.1" id="Layer_1" xmlns="http://www.w3.org/2000/svg" xmlns:xlink="http://www.w3.org/1999/xlink" x="0px" y="0px"
	 width="193.38px" height="60.204px" viewBox="0 0 193.38 60.204" enable-background="new 0 0 193.38 60.204" xml:space="preserve">
<g>
	<path fill="#F9F9FA" d="M193.864-317.334c0,0.75-0.9,1.363-2,1.363h-10.535c-1.1,0-2-0.613-2-1.363s0.9-1.363,2-1.363h10.535
		C192.963-318.697,193.864-318.084,193.864-317.334"/>
	<path fill="#F9F9FA" d="M193.864-312.206c0,0.749-0.9,1.362-2,1.362h-10.535c-1.1,0-2-0.613-2-1.362s0.9-1.362,2-1.362h10.535
		C192.963-313.568,193.864-312.955,193.864-312.206"/>
</g>
<g>
	<path fill="#CD3070" d="M11.15,46.359c-3.695,0-8.457-1.19-11.15-2.757l1.502-6.014c2.38,1.377,6.705,2.629,9.9,2.629
		c2.254,0,3.883-0.875,3.883-2.567c0-2.13-1.317-2.817-6.453-4.821c-4.825-1.882-7.957-3.574-7.957-8.897
		c0-6.078,4.951-9.398,11.402-9.398c3.635,0,7.455,1.13,9.586,2.319l-1.504,5.952c-1.629-0.815-5.012-1.757-7.58-1.757
		c-2.818,0-4.135,0.879-4.135,2.507c0,1.629,2.067,2.382,5.639,3.698c5.576,2.065,8.709,4.822,8.709,9.709
		C22.992,43.165,17.416,46.359,11.15,46.359"/>
	<path fill="#CD3070" d="M24.558,15.411h4.322v-2.568C28.88,2.882,35.396,0,40.845,0c1.129,0,2.756,0.125,3.445,0.376l-0.877,6.076
		h-0.75c-5.326,0-6.14,2.757-6.14,6.578v2.381h6.201V21.3h-6.201v24.182H28.88V21.3h-4.322V15.411z"/>
	<path fill="#CD3070" d="M79.625,15.411h0.002l3.697-7.455h3.883v7.455h8.145v5.826h-8.145v15.537c0,1.753,0.752,3.006,2.383,3.006
		c1.816,0,4.07-0.688,5.324-1.127l0.877,5.639c-1.629,1.064-4.824,2.067-7.58,2.067c-5.326,0-8.584-2.507-8.584-8.959V21.237h-0.002
		V15.411z"/>
	<path fill="#CD3070" d="M99.55,5.075c0-2.694,2.129-4.824,4.885-4.824c2.82,0,5.076,2.13,5.076,4.824
		c0,2.629-2.256,4.76-5.076,4.76C101.679,9.835,99.55,7.704,99.55,5.075 M100.615,16.101l7.645-1.566v30.947h-7.645V16.101z"/>
	<path fill="#FFFFFF" d="M122.416,44.919v14.409h-7.645V15.787l7.645-1.254v3.634c2.254-2.505,5.324-3.634,8.395-3.634
		c7.268,0,12.215,5.765,12.215,15.474c0,9.963-5.387,16.353-14.596,16.353C126.173,46.359,123.98,45.671,122.416,44.919
		 M122.416,38.277c1.316,0.878,3.383,1.754,5.699,1.754c4.26,0,7.08-3.133,7.08-9.459c0-4.823-1.566-9.335-6.139-9.335
		c-2.633,0-4.887,1.378-6.641,3.571V38.277z"/>
	<path fill="#FFFFFF" d="M161.257,48.928c-2.193,5.951-5.199,11.276-12.342,11.276c-1.816,0-4.197-0.313-5.889-1.19l1.252-5.513
		c1.004,0.439,2.883,0.751,3.885,0.751c3.57,0,5.451-3.82,7.582-9.96l-11.904-28.881h8.145l7.33,18.857l6.451-18.857h7.832
		L161.257,48.928z"/>
	<polygon fill="#FFFFFF" points="177.617,16.621 174.298,16.621 174.298,15.642 182.107,15.642 182.107,16.621 178.787,16.621 
		178.787,25.438 177.617,25.438 	"/>
	<polygon fill="#FFFFFF" points="183.714,15.642 185.119,15.642 188.583,23.624 192.08,15.642 193.38,15.642 193.38,25.438 
		192.208,25.438 192.208,18.025 188.919,25.438 188.191,25.438 184.884,17.967 184.884,25.438 183.714,25.438 	"/>
	<g>
		<g>
			<g>
				<g>
					<path fill="#CD3070" d="M59.226,13.13c-9.146,0-16.559,7.413-16.559,16.562c0,9.146,7.413,16.56,16.559,16.56
						c9.15,0,16.564-7.414,16.564-16.56C75.79,20.543,68.376,13.13,59.226,13.13z M68.403,30.67
						c-4.382,2.416-8.752,4.847-13.129,7.271c-0.338,0.187-0.675,0.406-1.041,0.506c-0.613,0.169-0.861-0.056-0.863-0.684
						c-0.002-2.691,0-5.382,0-8.071v-8.015c0-0.703,0.291-0.932,0.969-0.721c0.277,0.088,0.531,0.256,0.789,0.398
						c4.424,2.451,8.847,4.907,13.275,7.353c0.405,0.224,0.686,0.488,0.686,0.979C69.086,30.177,68.808,30.444,68.403,30.67z"/>
				</g>
			</g>
		</g>
	</g>
</g>
</svg>
