<?xml version="1.0" encoding="utf-8"?>
<!-- Generator: Adobe Illustrator 14.0.0, SVG Export Plug-In . SVG Version: 6.00 Build 43363)  -->
<!DOCTYPE svg PUBLIC "-//W3C//DTD SVG 1.1//EN" "http://www.w3.org/Graphics/SVG/1.1/DTD/svg11.dtd">
<svg version="1.1" id="Layer_1" xmlns="http://www.w3.org/2000/svg" xmlns:xlink="http://www.w3.org/1999/xlink" x="0px" y="0px"
	 width="28.894px" height="24.197px" viewBox="0 0 28.894 24.197" enable-background="new 0 0 28.894 24.197" xml:space="preserve">
<g>
	<path fill="#F9F9FA" d="M114.57-238.11c0,0.75-0.9,1.363-2,1.363h-10.535c-1.1,0-2-0.613-2-1.363s0.9-1.363,2-1.363h10.535
		C113.67-239.473,114.57-238.86,114.57-238.11"/>
	<path fill="#F9F9FA" d="M114.57-232.981c0,0.749-0.9,1.362-2,1.362h-10.535c-1.1,0-2-0.613-2-1.362s0.9-1.362,2-1.362h10.535
		C113.67-234.343,114.57-233.73,114.57-232.981"/>
</g>
<g>
	<path fill="#F7F8F9" d="M24.996,24.197H1.98c-1.093,0-1.98-0.887-1.98-1.979V1.979C0,0.887,0.888,0,1.98,0h14.424
		c1.094,0,1.98,0.887,1.98,1.979c0,1.095-0.887,1.981-1.98,1.981H3.961v16.275h19.056v-3.222c0-1.095,0.886-1.979,1.979-1.979
		s1.98,0.885,1.98,1.979v5.203C26.977,23.311,26.09,24.197,24.996,24.197"/>
	<path fill="#F7F8F9" d="M28.613,7.523L22.393,1.84c-0.37-0.338-0.675-0.205-0.675,0.298v2.46
		C8.884,5.508,8.095,16.346,8.095,16.346s5.659-7.343,13.623-4.793v2.588c0,0.502,0.305,0.637,0.675,0.298l6.221-5.683
		C28.986,8.417,28.986,7.863,28.613,7.523"/>
</g>
</svg>
