<?xml version="1.0" encoding="utf-8"?>
<!-- Generator: Adobe Illustrator 14.0.0, SVG Export Plug-In . SVG Version: 6.00 Build 43363)  -->
<!DOCTYPE svg PUBLIC "-//W3C//DTD SVG 1.1//EN" "http://www.w3.org/Graphics/SVG/1.1/DTD/svg11.dtd">
<svg version="1.1" id="Layer_1" xmlns="http://www.w3.org/2000/svg" xmlns:xlink="http://www.w3.org/1999/xlink" x="0px" y="0px"
	 width="25.541px" height="16.938px" viewBox="0 0 25.541 16.938" enable-background="new 0 0 25.541 16.938" xml:space="preserve">
<g>
	<path fill="#F9F9FA" d="M113.766-241.23c0,0.75-0.9,1.363-2,1.363H101.23c-1.1,0-2-0.613-2-1.363s0.9-1.363,2-1.363h10.535
		C112.865-242.593,113.766-241.98,113.766-241.23"/>
	<path fill="#F9F9FA" d="M113.766-236.102c0,0.749-0.9,1.362-2,1.362H101.23c-1.1,0-2-0.613-2-1.362s0.9-1.362,2-1.362h10.535
		C112.865-237.463,113.766-236.851,113.766-236.102"/>
</g>
<g>
	<path fill="#343434" d="M3.322,1.422v-1.2c0-0.23-0.143-0.291-0.314-0.135L0.129,2.716c-0.172,0.157-0.172,0.414,0,0.57l2.879,2.63
		c0.172,0.157,0.314,0.095,0.314-0.14V4.64V1.422z"/>
	<path fill="#343434" d="M22.221,15.516v1.198c0,0.232,0.142,0.293,0.312,0.137l2.879-2.629c0.172-0.156,0.172-0.414,0-0.57
		l-2.879-2.629c-0.171-0.158-0.312-0.096-0.312,0.137v1.14V15.516z"/>
	<path fill="#343434" d="M5.402,2.015H1.248c-0.545,0-0.987,0.441-0.987,0.987c0,0.544,0.442,0.985,0.987,0.985h4.154
		c2.472,0,3.707,1.119,5.066,3.054l1.156-1.761C10.098,3.28,8.459,2.015,5.402,2.015"/>
	<path fill="#343434" d="M23.591,12.949h-4.214c-2.666,0-3.897-1.865-5.518-4.394l-1.132,1.882c1.586,2.406,3.302,4.485,6.649,4.485
		h4.214c0.545,0,0.989-0.44,0.989-0.986S24.136,12.949,23.591,12.949"/>
	<path fill="#343434" d="M22.221,4.581v1.195c0,0.234,0.142,0.297,0.312,0.14l2.879-2.629c0.172-0.157,0.172-0.414,0-0.571
		l-2.879-2.629c-0.171-0.156-0.312-0.096-0.312,0.135v1.142V4.581z"/>
	<path fill="#343434" d="M3.322,12.358v-1.199c0-0.232-0.143-0.295-0.314-0.137L0.129,13.65c-0.172,0.157-0.172,0.415,0,0.571
		l2.879,2.629c0.172,0.156,0.314,0.096,0.314-0.137v-1.139V12.358z"/>
	<path fill="#343434" d="M5.202,14.923h-3.54v-1.974h1.656h1.884c2.265,0,3.532-1.315,4.849-3.436
		c0.252-0.411,0.498-0.828,0.755-1.272c0.168-0.279,0.327-0.561,0.496-0.839c0.423-0.711,0.94-1.54,1.564-2.307
		c1.711-2.103,3.716-3.081,6.31-3.081h4.764c0.545,0,0.986,0.441,0.986,0.987c0,0.544-0.441,0.985-0.986,0.985h-4.764
		c-1.98,0-3.452,0.727-4.779,2.354c-0.543,0.67-1.014,1.425-1.402,2.074c-0.162,0.272-0.322,0.547-0.48,0.821
		c-0.256,0.436-0.518,0.884-0.787,1.318C10.321,12.823,8.556,14.923,5.202,14.923"/>
</g>
</svg>
