<?xml version="1.0" encoding="utf-8"?>
<!-- Generator: Adobe Illustrator 14.0.0, SVG Export Plug-In . SVG Version: 6.00 Build 43363)  -->
<!DOCTYPE svg PUBLIC "-//W3C//DTD SVG 1.1//EN" "http://www.w3.org/Graphics/SVG/1.1/DTD/svg11.dtd">
<svg version="1.1" id="Layer_1" xmlns="http://www.w3.org/2000/svg" xmlns:xlink="http://www.w3.org/1999/xlink" x="0px" y="0px"
	 width="22.223px" height="22.345px" viewBox="0 0 22.223 22.345" enable-background="new 0 0 22.223 22.345" xml:space="preserve">
<g>
	<path fill="#F9F9FA" d="M56.019-238.936c0,0.75-0.9,1.363-2,1.363H43.483c-1.1,0-2-0.613-2-1.363s0.9-1.363,2-1.363h10.535
		C55.118-240.299,56.019-239.686,56.019-238.936"/>
	<path fill="#F9F9FA" d="M56.019-233.808c0,0.749-0.9,1.362-2,1.362H43.483c-1.1,0-2-0.613-2-1.362s0.9-1.362,2-1.362h10.535
		C55.118-235.169,56.019-234.557,56.019-233.808"/>
</g>
<g>
	<path fill="#F9F9FA" d="M15.094,3v3.479l3-0.435V3c0-1.649-1.351-3-3-3H3C1.35,0,0,1.351,0,3v12.094c0,1.65,1.35,3,3,3h2.84
		l-0.105-3c0,0-3.303-0.093-2.734,0V3H15.094"/>
	<path fill="#F9F9FA" d="M19.223,19.346H7.129V7.251h12.094V19.346z M19.223,4.251H7.129c-1.65,0-3,1.351-3,3v12.095
		c0,1.648,1.35,3,3,3h12.094c1.649,0,3-1.352,3-3V7.251C22.223,5.602,20.872,4.251,19.223,4.251"/>
</g>
</svg>
