<?xml version="1.0" encoding="utf-8"?>
<!-- Generator: Adobe Illustrator 14.0.0, SVG Export Plug-In . SVG Version: 6.00 Build 43363)  -->
<!DOCTYPE svg PUBLIC "-//W3C//DTD SVG 1.1//EN" "http://www.w3.org/Graphics/SVG/1.1/DTD/svg11.dtd">
<svg version="1.1" id="Layer_1" xmlns="http://www.w3.org/2000/svg" xmlns:xlink="http://www.w3.org/1999/xlink" x="0px" y="0px"
	 width="17.416px" height="21.827px" viewBox="0 0 17.416 21.827" enable-background="new 0 0 17.416 21.827" xml:space="preserve">
<g>
	<path fill="#F9F9FA" d="M108.918-239.635c0,0.75-0.9,1.363-2,1.363H96.383c-1.1,0-2-0.613-2-1.363s0.9-1.363,2-1.363h10.535
		C108.018-240.998,108.918-240.385,108.918-239.635"/>
	<path fill="#F9F9FA" d="M108.918-234.507c0,0.749-0.9,1.362-2,1.362H96.383c-1.1,0-2-0.613-2-1.362s0.9-1.362,2-1.362h10.535
		C108.018-235.869,108.918-235.256,108.918-234.507"/>
</g>
<g>
	<path fill="#8C8C8C" d="M14.428,5.721c0,3.158-2.562,5.72-5.722,5.72c-3.157,0-5.717-2.562-5.717-5.72C2.989,2.561,5.549,0,8.706,0
		C11.866,0,14.428,2.561,14.428,5.721"/>
	<path fill="#8C8C8C" d="M17.416,21.827H0V15.98c0-2.852,2.334-5.188,5.187-5.188h7.042c2.851,0,5.187,2.336,5.187,5.188V21.827z"/>
</g>
</svg>
