<?xml version="1.0" encoding="utf-8"?>
<!-- Generator: Adobe Illustrator 14.0.0, SVG Export Plug-In . SVG Version: 6.00 Build 43363)  -->
<!DOCTYPE svg PUBLIC "-//W3C//DTD SVG 1.1//EN" "http://www.w3.org/Graphics/SVG/1.1/DTD/svg11.dtd">
<svg version="1.1" id="Layer_1" xmlns="http://www.w3.org/2000/svg" xmlns:xlink="http://www.w3.org/1999/xlink" x="0px" y="0px"
	 width="24.203px" height="21.56px" viewBox="0 0 24.203 21.56" enable-background="new 0 0 24.203 21.56" xml:space="preserve">
<g>
	<path fill="#F9F9FA" d="M111.943-239.868c0,0.75-0.9,1.363-2,1.363H99.408c-1.1,0-2-0.613-2-1.363s0.9-1.363,2-1.363h10.535
		C111.043-241.23,111.943-240.618,111.943-239.868"/>
	<path fill="#F9F9FA" d="M111.943-234.739c0,0.749-0.9,1.362-2,1.362H99.408c-1.1,0-2-0.613-2-1.362s0.9-1.362,2-1.362h10.535
		C111.043-236.101,111.943-235.488,111.943-234.739"/>
</g>
<g>
	<path fill="#828282" d="M9.955,2.458L4.721,6.562C4.516,6.725,4.33,6.967,4.182,7.236H1.088C0.488,7.236,0,7.727,0,8.327v4.905
		c0,0.602,0.488,1.092,1.088,1.092h3.094c0.148,0.27,0.334,0.512,0.539,0.672l5.234,4.107c0.473,0.369,0.859,0.182,0.859-0.418
		V2.874C10.814,2.273,10.428,2.088,9.955,2.458"/>
	<path fill="#828282" d="M13.424,17.521c-0.603,0-1.092-0.489-1.092-1.091c0-0.603,0.489-1.09,1.092-1.09
		c2.514,0,4.559-2.046,4.559-4.56c0-2.515-2.045-4.559-4.559-4.559c-0.603,0-1.092-0.489-1.092-1.093c0-0.601,0.489-1.09,1.092-1.09
		c3.715,0,6.74,3.024,6.74,6.741C20.164,14.496,17.139,17.521,13.424,17.521"/>
	<path fill="#828282" d="M13.424,21.56c-0.603,0-1.092-0.487-1.092-1.091c0-0.602,0.489-1.09,1.092-1.09
		c4.741,0,8.599-3.857,8.599-8.599S18.165,2.18,13.424,2.18c-0.603,0-1.092-0.488-1.092-1.09c0-0.603,0.489-1.09,1.092-1.09
		c5.943,0,10.779,4.836,10.779,10.78S19.367,21.56,13.424,21.56"/>
</g>
</svg>
